<?xml version="1.0" encoding="UTF-8" standalone="no"?>
<!-- Created with Inkscape (http://www.inkscape.org/) -->

<svg
   xmlns:dc="http://purl.org/dc/elements/1.1/"
   xmlns:cc="http://creativecommons.org/ns#"
   xmlns:rdf="http://www.w3.org/1999/02/22-rdf-syntax-ns#"
   xmlns:svg="http://www.w3.org/2000/svg"
   xmlns="http://www.w3.org/2000/svg"
   xmlns:sodipodi="http://sodipodi.sourceforge.net/DTD/sodipodi-0.dtd"
   xmlns:inkscape="http://www.inkscape.org/namespaces/inkscape"
   width="247.35669mm"
   height="94.128426mm"
   viewBox="0 0 247.35669 94.128426"
   version="1.1"
   id="svg864"
   inkscape:version="0.92.5 (2060ec1f9f, 2020-04-08)"
   sodipodi:docname="SHO-BET-2023.svg">
  <defs
     id="defs858" />
  <sodipodi:namedview
     id="base"
     pagecolor="#ffffff"
     bordercolor="#666666"
     borderopacity="1.0"
     inkscape:pageopacity="0.0"
     inkscape:pageshadow="2"
     inkscape:zoom="1.5402858"
     inkscape:cx="467.44572"
     inkscape:cy="177.88049"
     inkscape:document-units="mm"
     inkscape:current-layer="layer1"
     showgrid="false"
     inkscape:snap-global="true"
     inkscape:snap-smooth-nodes="true"
     inkscape:snap-bbox="true"
     inkscape:bbox-nodes="true"
     showguides="false"
     inkscape:guide-bbox="true"
     inkscape:window-width="1920"
     inkscape:window-height="1009"
     inkscape:window-x="-8"
     inkscape:window-y="-8"
     inkscape:window-maximized="1" />
  <metadata
     id="metadata861">
    <rdf:RDF>
      <cc:Work
         rdf:about="">
        <dc:format>image/svg+xml</dc:format>
        <dc:type
           rdf:resource="http://purl.org/dc/dcmitype/StillImage" />
        <dc:title></dc:title>
      </cc:Work>
    </rdf:RDF>
  </metadata>
  <g
     inkscape:label="Layer 1"
     inkscape:groupmode="layer"
     id="layer1"
     transform="translate(41.517993,-95.721497)">
    <polygon
       id="polygon22"
       points="193.261,450.395 164.073,420.945 193.524,391.756 188.311,386.543 158.861,415.732 129.67,386.282 124.459,391.495 153.648,420.945 124.198,450.135 129.409,455.348 158.861,426.158 188.05,455.607 "
       transform="matrix(0.3446286,0,0,0.3446286,28.143698,-2.283969)" />
    <path
       style="fill:#ff202c;fill-opacity:1;stroke:none;stroke-width:1.57116318"
       id="path1136"
       d="m -32.210368,164.66722 c 3.007145,0 5.142362,-2.64744 5.142362,-6.4905 0.01042,-7.97207 -6.980576,-9.50709 -14.448338,-16.25051 -0.0973,13.64551 4.124303,22.74101 9.305976,22.74101 z"
       class="cls-1"
       inkscape:connector-curvature="0" />
    <path
       style="fill:#ff202c;fill-opacity:1;stroke:none;stroke-width:1.57116318"
       id="path1138"
       d="m 35.83366,142.43838 c 0,-10.40265 3.029171,-20.81792 8.558021,-20.81792 6.572245,0 8.231346,16.08561 8.231346,21.16513 0,11.1553 -3.510053,21.22333 -8.231346,21.22333 -5.675059,0 -8.558021,-10.60222 -8.558021,-21.57054 z"
       class="cls-1"
       inkscape:connector-curvature="0" />
    <path
       inkscape:connector-curvature="0"
       id="path1148"
       d="m 5.5539541,95.721536 c -13.3720284,-0.01667 -26.1165751,5.669254 -35.0366741,15.631424 8.221929,1.62774 11.018481,8.51717 11.018481,19.18374 h -10.055388 c 0,-6.28462 -1.309033,-9.5524 -5.037326,-9.5524 -3.190816,0 -4.515779,2.87494 -4.515779,5.80204 0,13.04064 21.416708,12.39172 21.416708,32.43664 0,7.82752 -6.000614,15.12587 -12.758196,15.12587 18.500532,20.44061 50.520761,20.70233 69.353048,0.567 -7.917189,-1.99538 -14.810012,-13.38141 -14.809804,-31.47804 1.04e-4,-18.85393 6.97448,-30.75096 15.306395,-32.00629 C 32.109808,101.19224 18.187668,95.721536 5.5539541,95.721536 Z M -12.54868,112.68982 h 10.7732271 v 24.90799 H 9.877987 v -24.90799 h 10.768681 v 61.82246 H 9.877987 v -26.7854 H -1.748751 v 26.7854 H -12.54868 Z"
       style="fill:#ff202c;fill-opacity:1;stroke:none;stroke-width:1.57116306" />
    <rect
       style="opacity:1;vector-effect:none;fill:#000000;fill-opacity:1;fill-rule:evenodd;stroke:none;stroke-width:2.03084373;stroke-linecap:butt;stroke-linejoin:miter;stroke-miterlimit:4;stroke-dasharray:none;stroke-dashoffset:0;stroke-opacity:1"
       id="rect880"
       width="92.505989"
       height="94.128426"
       x="113.33271"
       y="95.721497" />
    <path
       style="opacity:1;vector-effect:none;fill:#ffffff;fill-opacity:1;fill-rule:evenodd;stroke:none;stroke-width:2.96746445;stroke-linecap:butt;stroke-linejoin:miter;stroke-miterlimit:4;stroke-dasharray:none;stroke-dashoffset:0;stroke-opacity:1"
       d="m 119.67556,102.2351 v 38.21423 h 24.94342 c 8.75419,0 14.15763,-3.96134 14.15763,-11.95056 0,-3.45289 -1.90992,-6.29267 -3.89842,-7.87526 1.75786,-1.8326 2.88509,-4.47514 2.88509,-7.25068 0,-6.94962 -5.44547,-11.13773 -13.38607,-11.13773 z m 10.87269,10.85576 h 15.28632 v 3.1314 h -15.28632 z m 0,13.16339 h 15.28632 v 3.16526 h -15.28632 z"
       id="rect826"
       inkscape:connector-curvature="0"
       sodipodi:nodetypes="cccccccccccccccccc" />
    <path
       style="opacity:1;vector-effect:none;fill:#ffffff;fill-opacity:1;fill-rule:evenodd;stroke:none;stroke-width:2.96746445;stroke-linecap:butt;stroke-linejoin:miter;stroke-miterlimit:4;stroke-dasharray:none;stroke-dashoffset:0;stroke-opacity:1"
       d="m 163.91887,102.2351 v 38.21423 h 35.57705 v -11.09745 h -24.70436 v -2.92356 h 24.60758 v -10.20606 h -24.60758 v -2.88972 h 24.70436 V 102.2351 Z"
       id="rect842"
       inkscape:connector-curvature="0" />
    <path
       style="opacity:1;vector-effect:none;fill:#ffffff;fill-opacity:1;fill-rule:evenodd;stroke:none;stroke-width:2.36278892;stroke-linecap:butt;stroke-linejoin:miter;stroke-miterlimit:4;stroke-dasharray:none;stroke-dashoffset:0;stroke-opacity:1"
       d="m 132.70231,159.10903 v 24.22707 h 10.87295 v -24.22707 z"
       id="rect856"
       inkscape:connector-curvature="0" />
    <path
       style="opacity:1;vector-effect:none;fill:#ffffff;fill-opacity:1;fill-rule:evenodd;stroke:none;stroke-width:2.94141912;stroke-linecap:butt;stroke-linejoin:miter;stroke-miterlimit:4;stroke-dasharray:none;stroke-dashoffset:0;stroke-opacity:1"
       d="m 119.67556,145.12212 v 11.112 h 36.73738 v -11.112 z"
       id="rect858"
       inkscape:connector-curvature="0" />
    <path
       style="opacity:1;vector-effect:none;fill:#ffffff;fill-opacity:1;fill-rule:evenodd;stroke:none;stroke-width:1.86361742;stroke-linecap:butt;stroke-linejoin:miter;stroke-miterlimit:4;stroke-dasharray:none;stroke-dashoffset:0;stroke-opacity:1"
       d="m 181.63538,143.6374 -4.86869,15.29548 h -15.16526 l 12.35369,9.4694 -4.57279,15.01889 12.27576,-9.25755 12.32209,9.25755 -4.69881,-15.01889 12.53943,-9.4694 h -15.31672 z"
       id="path882"
       inkscape:connector-curvature="0"
       sodipodi:nodetypes="ccccccccccc" />
  </g>
</svg>
